<svg height="161" viewBox="0 0 426 161" width="426" xmlns="http://www.w3.org/2000/svg"><g fill="#fff" fill-rule="nonzero"><path d="m49.6 134.2c2.3-3.5 5.5-4.7 10.7-3.3 4.6 1.2 10.9 4.8 12.5 6.4 2.3 2.3 3.1 4.6 2.7 8.3-.3 2.9-1.1 5.6-2.5 8.2-2.1 4.1-4.9 6.5-8.7 6.6s-11.7-.8-16.2-2.8-5-6.8-3.5-12c1.1-4.2 2.8-8 5-11.4"/><path d="m171.4 158c-18.2 0-24.6-15.1-24.6-28.1s6.5-28.1 24.6-28.1 24.6 15.1 24.6 28.1-6.4 28.1-24.6 28.1m0-59.2c-20.1 0-29.2 16.1-29.2 31s9.1 31 29.2 31 29.2-16.1 29.2-31-9.1-31-29.2-31"/><path d="m227.2 115.5h-6.5v-12c0-2.7-1.4-2.7-2-2.7s-2 0-2 2.7v12h-6.5c-1 0-1.5.4-1.5 1.2s.5 1.2 1.5 1.2h6.5v40.3c0 2.6 1.4 2.6 2 2.6s2 0 2-2.6v-40.3h6.5c1 0 1.5-.4 1.5-1.2s-.5-1.2-1.5-1.2"/><path d="m260.3 140.6-12.7-4.6c-6-2.2-8.5-5.4-8.5-10 0-6.8 8.6-11.1 16.7-11.1 5.2-.1 10.4 1.2 15 3.7 2.2 1.3.4 3.8-1.6 2.7-3.5-1.8-6.1-4-13.2-4-6.1 0-12.5 2.8-12.5 8.2 0 3.1 2.5 5.5 6.3 6.8 1.2.4 9.7 3.4 11.2 3.9 7.9 2.8 12.5 5.9 12.5 12.2 0 7.4-7.4 12.3-18.4 12.3-9.3 0-15.4-4.1-18-6.7-2.1-2.1.5-4.3 2.2-2.5 4.1 4.4 9.9 6.9 16 6.9 7.7 0 13.6-4.2 13.6-9.7.1-5.2-4.5-6.7-8.6-8.1"/><path d="m323.3 115c-.6 0-2 0-2 2.6v26.9c0 3.6-.3 6.7-1.9 9-2.3 3.2-6.9 5-13.1 5s-10.5-1.8-12.9-5.1c-1.6-2.3-2.1-5.3-2.1-8.9v-27c0-2.6-1.4-2.6-2-2.6s-2 0-2 2.6v28.5c0 9 7.5 14.8 19 14.8s19-5.8 19-14.8v-28.5c0-2.5-1.4-2.5-2-2.5"/><path d="m372.5 160c2.1 1.6 2.9.6 3.2.1s1.2-1.5-.8-3.1l-25.8-20.7 25.2-18.8c1.3-1 .9-1.8.7-2.1s-.8-.9-2.2.1l-28.3 20.8v-39.7c0-2.6-1.4-2.6-2-2.6s-2 0-2 2.6v61.7c0 2.6 1.4 2.6 2 2.6s2 0 2-2.6v-20.7z"/><path d="m404.3 158.5c-12.7 0-17.5-11.1-17.5-20.6 0-10.2 5.6-20.6 17.5-20.6 12.6 0 17.1 11.1 17.1 20.6s-4.5 20.6-17.1 20.6m19.1-43.5c-.6 0-2 .1-2 2.6v9.4c-2.5-7.3-9.5-12.2-17.3-12-14.8 0-21.5 11.9-21.5 23s5.7 22.9 21.8 22.9c9.9 0 15-6.2 17.1-12v9.3c0 2.6 1.3 2.6 1.9 2.6s2 0 2-2.6v-40.6c-.1-2.5-1.4-2.6-2-2.6"/><path d="m82.1.5c-11.5 2-39.5 11.7-57 22.6-20.1 12.6-26.4 24.8-23.4 40.1 2.6 13.3 8.2 26.3 17.7 41.6 10.4 16.8 26.1 26.5 45.8 17.6s47.8-29.6 58-42.1c12-14.7 12-28.3 7.5-41.8-3.5-10.7-8.8-18.5-16.2-26.7-6.7-7.4-16.3-11.7-26.4-11.8-2 0-4 .2-6 .5"/></g></svg>