<svg width="116" height="57" xmlns="http://www.w3.org/2000/svg" viewBox="0 0 116 57"><path d="M.5.5h115v56H.5V.5z" fill="none" stroke="#9ae51a"/><path d="M19.5 23.5l.5-1.7c.5-1.9 1-4.1 1.5-6.1h.1c.5 2 1 4.2 1.5 6.1l.4 1.7h-4zm6.1 7.8h4.5l-5.9-18.9h-5.1l-5.9 18.9h4.4l1.2-4.5h5.8l1 4.5zm7.2 0h5.6c5.5 0 9.3-3 9.3-9.5s-3.7-9.4-9.5-9.4h-5.3v18.9zm4.2-3.4v-12h.8c3.2 0 5.4 1.4 5.4 5.9s-2.1 6.1-5.4 6.1H37zm14.8 3.4H56v-6.4h2.3c4 0 7.4-2 7.4-6.4 0-4.6-3.4-6.1-7.5-6.1h-6.5v18.9zm4.2-9.8v-5.7h2c2.3 0 3.6.7 3.6 2.7s-1.1 3-3.5 3H56zm13.6 9.8h4.3v-5.1l2.2-2.9 4.6 8h4.7L78.6 20l5.7-7.5h-4.7L74 20.2h-.1v-7.7h-4.3v18.8zm18.4 0h5.6c5.5 0 9.3-3 9.3-9.5s-3.7-9.4-9.5-9.4H88v18.9zm4.3-3.4v-12h.8c3.2 0 5.4 1.4 5.4 5.9s-2.1 6.1-5.4 6.1h-.8z" fill="#fff"/><path d="M12.9 36.4h3.4c2.2 0 3.9.8 3.9 3.1s-1.8 3.3-3.8 3.3h-1.2v3.3H13v-9.7zm3.3 4.7c1.2 0 1.8-.5 1.8-1.6 0-1-.7-1.4-1.9-1.4h-1v3h1.1zm7.1-4.7h3.5c2.1 0 3.8.7 3.8 3 0 2.2-1.7 3.2-3.8 3.2h-1.3v3.5h-2.2v-9.7zm3.4 4.5c1.2 0 1.8-.5 1.8-1.5s-.6-1.3-1.8-1.3h-1.1v2.7h1.1zm-.3 1.2l1.5-1.4 3.1 5.5h-2.5l-2.1-4.1zm7.6-5.7h6.1v1.9h-3.9v2h3.3v1.9h-3.3v2.3h4.1v1.9H34v-10zm9.3 5c0-3.2 2.2-5.1 4.8-5.1 1.4 0 2.4.6 3.1 1.3L50 38.9c-.5-.4-1-.8-1.8-.8-1.5 0-2.6 1.2-2.6 3.1 0 2 .9 3.2 2.8 3.2.4 0 .8-.1 1-.3v-1.7h-1.6v-1.8h3.6v4.5c-.7.7-1.9 1.2-3.2 1.2-2.8.1-4.9-1.6-4.9-4.9zm11.4.3v-5.2H57V42c0 1.9.6 2.6 1.7 2.6s1.7-.7 1.7-2.6v-5.5h2.1v5.2c0 3.3-1.3 4.7-3.9 4.7s-3.9-1.4-3.9-4.7zm11.6-5.3h2.3l2.6 4.9 1 2.1h.1c-.1-1-.3-2.4-.3-3.6v-3.5h2.1v9.8h-2.3l-2.5-4.9-1-2.1h-.1c.1 1.1.3 2.4.3 3.5v3.5h-2.1v-9.7zm13.4 1.9H77v-1.9h7.6v1.9h-2.7v7.9h-2.2v-7.9zm9.1-1.9h2.6l3.1 9.8h-2.3l-1.3-5c-.3-1-.5-2.1-.8-3.2H90c-.2 1-.5 2.2-.8 3.2l-1.3 5h-2.3l3.2-9.8zm-1 5.8h4.7v1.7h-4.7v-1.7zm8.7 2.8l1.3-1.5c.7.6 1.6 1 2.4 1 .9 0 1.4-.4 1.4-.9 0-.6-.6-.8-1.4-1.2l-1.3-.5c-1-.4-2-1.2-2-2.7 0-1.6 1.4-2.9 3.5-2.9 1.1 0 2.3.4 3.1 1.3l-1.1 1.4c-.6-.5-1.3-.8-2-.8-.8 0-1.2.3-1.2.9 0 .6.6.8 1.5 1.2l1.2.5c1.2.5 1.9 1.3 1.9 2.7 0 1.6-1.4 3-3.7 3-1.3-.1-2.6-.6-3.6-1.5z" fill="#9ae51a"/></svg>