<svg width="116" height="57" viewBox="0 0 116 57" fill="none" xmlns="http://www.w3.org/2000/svg">
<path d="M0.5 0.5H115.5V56.5H0.5V0.5Z" stroke="#9AE51A"/>
<path d="M17.944 23.4887L18.408 21.7487C18.93 19.8637 19.423 17.6597 19.887 15.6587H20.003C20.496 17.6307 21.018 19.8637 21.54 21.7487L21.975 23.4887H17.944ZM24.005 31.3187H28.529L22.613 12.4107H17.48L11.564 31.3187H15.914L17.074 26.8237H22.845L24.005 31.3187ZM31.175 31.3187H36.743C42.282 31.3187 45.994 28.2737 45.994 21.7777C45.994 15.2817 42.282 12.4107 36.511 12.4107H31.175V31.3187ZM35.438 27.8677V15.8617H36.25C39.469 15.8617 41.615 17.2537 41.615 21.7777C41.615 26.3017 39.469 27.8677 36.25 27.8677H35.438ZM50.1632 31.3187H54.4262V24.9097H56.7752C60.7772 24.9097 64.1702 22.9377 64.1702 18.5007C64.1702 13.9187 60.8062 12.4107 56.6592 12.4107H50.1632V31.3187ZM54.4262 21.5167V15.8037H56.3982C58.7182 15.8037 59.9942 16.5287 59.9942 18.5007C59.9942 20.4727 58.8632 21.5167 56.5142 21.5167H54.4262ZM68.0186 31.3187H72.2816V26.2437L74.4856 23.3437L79.0966 31.3187H83.7656L77.0086 19.9507L82.7216 12.4107H78.0236L72.3976 20.1537H72.2816V12.4107H68.0186V31.3187ZM86.4121 31.3187H91.9801C97.5191 31.3187 101.231 28.2737 101.231 21.7777C101.231 15.2817 97.5191 12.4107 91.7481 12.4107H86.4121V31.3187ZM90.6751 27.8677V15.8617H91.4871C94.7061 15.8617 96.8521 17.2537 96.8521 21.7777C96.8521 26.3017 94.7061 27.8677 91.4871 27.8677H90.6751Z" fill="white"/>
<path d="M14.693 41.3837C14.693 39.4337 15.533 38.2637 16.868 38.2637C18.203 38.2637 19.043 39.4337 19.043 41.3837C19.043 43.4687 18.203 44.6987 16.868 44.6987C15.533 44.6987 14.693 43.4687 14.693 41.3837ZM21.428 47.1137C21.143 47.2037 20.768 47.2787 20.348 47.2787C19.523 47.2787 18.653 47.0087 18.203 46.3187C20.093 45.7787 21.308 44.0087 21.308 41.3837C21.308 38.2037 19.508 36.3587 16.868 36.3587C14.228 36.3587 12.428 38.1887 12.428 41.3837C12.428 44.1437 13.778 45.9587 15.863 46.3937C16.553 47.9237 18.023 49.0487 20.093 49.0487C20.843 49.0487 21.458 48.8987 21.818 48.7187L21.428 47.1137ZM28.5019 46.4987C31.0219 46.4987 32.3569 45.0737 32.3569 41.7887V36.5387H30.2269V42.0137C30.2269 43.9337 29.5969 44.5937 28.5019 44.5937C27.4069 44.5937 26.8069 43.9337 26.8069 42.0137V36.5387H24.5869V41.7887C24.5869 45.0737 25.9669 46.4987 28.5019 46.4987ZM36.1225 46.3187H42.3925V44.4587H38.3275V42.2087H41.6575V40.3637H38.3275V38.3987H42.2425V36.5387H36.1225V46.3187ZM48.8253 46.4987C51.1653 46.4987 52.5153 45.0887 52.5153 43.4687C52.5153 42.0887 51.7653 41.2937 50.5803 40.8137L49.3203 40.3037C48.4803 39.9587 47.8353 39.7487 47.8353 39.1487C47.8353 38.5937 48.3153 38.2637 49.0803 38.2637C49.8603 38.2637 50.4603 38.5487 51.1053 39.0437L52.2303 37.6487C51.3903 36.8087 50.2053 36.3587 49.0803 36.3587C47.0403 36.3587 45.6003 37.6487 45.6003 39.2687C45.6003 40.6937 46.5603 41.5337 47.5653 41.9387L48.8403 42.4787C49.6953 42.8387 50.2503 43.0337 50.2503 43.6487C50.2503 44.2337 49.8003 44.5937 48.8853 44.5937C48.0753 44.5937 47.1753 44.1737 46.4703 43.5737L45.2103 45.0887C46.2003 46.0187 47.5503 46.4987 48.8253 46.4987ZM57.2873 46.3187H59.5073V38.3987H62.1923V36.5387H54.6023V38.3987H57.2873V46.3187ZM65.2172 46.3187H67.4222V36.5387H65.2172V46.3187ZM75.2039 46.4987C77.8439 46.4987 79.6439 44.5787 79.6439 41.3837C79.6439 38.2037 77.8439 36.3587 75.2039 36.3587C72.5639 36.3587 70.7639 38.1887 70.7639 41.3837C70.7639 44.5787 72.5639 46.4987 75.2039 46.4987ZM75.2039 44.5937C73.8689 44.5937 73.0289 43.3487 73.0289 41.3837C73.0289 39.4337 73.8689 38.2637 75.2039 38.2637C76.5389 38.2637 77.3789 39.4337 77.3789 41.3837C77.3789 43.3487 76.5389 44.5937 75.2039 44.5937ZM82.9829 46.3187H85.0829V42.8537C85.0829 41.6987 84.9029 40.3937 84.8129 39.3137H84.8729L85.8329 41.4437L88.3829 46.3187H90.6479V36.5387H88.5479V39.9887C88.5479 41.1437 88.7279 42.5237 88.8179 43.5587H88.7579L87.7979 41.3987L85.2479 36.5387H82.9829V46.3187ZM97.4434 46.4987C99.7834 46.4987 101.133 45.0887 101.133 43.4687C101.133 42.0887 100.383 41.2937 99.1984 40.8137L97.9384 40.3037C97.0984 39.9587 96.4534 39.7487 96.4534 39.1487C96.4534 38.5937 96.9334 38.2637 97.6984 38.2637C98.4784 38.2637 99.0784 38.5487 99.7234 39.0437L100.848 37.6487C100.008 36.8087 98.8234 36.3587 97.6984 36.3587C95.6584 36.3587 94.2184 37.6487 94.2184 39.2687C94.2184 40.6937 95.1784 41.5337 96.1834 41.9387L97.4584 42.4787C98.3134 42.8387 98.8684 43.0337 98.8684 43.6487C98.8684 44.2337 98.4184 44.5937 97.5034 44.5937C96.6934 44.5937 95.7934 44.1737 95.0884 43.5737L93.8284 45.0887C94.8184 46.0187 96.1684 46.4987 97.4434 46.4987Z" fill="#9AE51A"/>
</svg>
