<svg xmlns="http://www.w3.org/2000/svg" id="Group_584" width="32.364" height="42.902" viewBox="0 0 32.364 42.902"><defs><style>.cls-1{fill:#191919}</style></defs><g id="Group_384"><path id="Path_331" d="M2231.74 901.327h6.937a1.8 1.8 0 001.7-1.091 1.6 1.6 0 00-.382-1.768l-6.937-6.795a1.89 1.89 0 00-2.064-.374 1.668 1.668 0 00-1.065 1.541v6.8a1.759 1.759 0 001.811 1.687zm-.375-8.487c0-.12.114-.186.183-.214a.526.526 0 01.2-.04.42.42 0 01.3.116l6.936 6.8a.163.163 0 01.057.2.372.372 0 01-.364.2h-6.937c-.221 0-.375-.133-.375-.253z" class="cls-1" transform="translate(-2209.177 -890.45)"/><path id="Path_332" d="M2186.315 901.538h-7.825a1.64 1.64 0 01-1.64-1.64v-7.3a3.878 3.878 0 00-3.873-3.873H2161.7a3.873 3.873 0 00-3.873 3.873v35.155a3.873 3.873 0 003.873 3.873h24.617a3.873 3.873 0 003.873-3.873v-22.342a3.873 3.873 0 00-3.875-3.873zm2.279 26.813a1.862 1.862 0 01-1.862 1.862h-25.45a1.862 1.862 0 01-1.862-1.862v-36.344a1.862 1.862 0 011.862-1.862h11.661c1.028 0 2.438.834 2.438 1.862v8.943a1.862 1.862 0 001.863 1.862h9.489c1.028 0 1.862 1.409 1.862 2.438z" class="cls-1" transform="translate(-2157.824 -888.728)"/><path id="Path_333" d="M2203.822 954.116h-.171l-4.312 5.336v-12.877a.863.863 0 10-1.726 0v12.877l-4.312-5.336h-.171a.946.946 0 00-.736 1.54l5.346 6.616a.946.946 0 001.471 0l5.346-6.616a.946.946 0 00-.736-1.54z" class="cls-1" transform="translate(-2182.294 -929.314)"/></g></svg>