<svg xmlns="http://www.w3.org/2000/svg" width="47.021" height="47.021" viewBox="0 0 47.021 47.021"><path fill="#fff" d="M29.053 12.347c-1.446-.067-1.881-.078-5.543-.078s-4.095.014-5.541.078c-3.721.17-5.452 1.932-5.623 5.623-.065 1.446-.08 1.879-.08 5.541s.016 4.095.08 5.543c.17 3.681 1.895 5.452 5.623 5.623 1.444.065 1.879.08 5.541.08s4.1-.014 5.543-.08c3.721-.168 5.451-1.936 5.623-5.623.065-1.446.078-1.881.078-5.543s-.014-4.095-.078-5.541c-.172-3.689-1.906-5.453-5.623-5.623zm-5.542 18.207a7.042 7.042 0 117.043-7.043 7.043 7.043 0 01-7.043 7.043zm7.322-12.717a1.646 1.646 0 111.646-1.646 1.646 1.646 0 01-1.647 1.646zm-2.751 5.674a4.571 4.571 0 11-4.571-4.571 4.571 4.571 0 014.57 4.571zM23.511 0a23.511 23.511 0 1023.51 23.511A23.512 23.512 0 0023.511 0zm13.632 29.165c-.225 4.986-3 7.749-7.976 7.978-1.464.067-1.932.082-5.656.082s-4.191-.016-5.654-.082c-4.984-.229-7.749-3-7.978-7.978-.067-1.465-.079-1.93-.079-5.654s.016-4.191.082-5.654c.229-4.984 3-7.749 7.978-7.976 1.464-.069 1.93-.084 5.654-.084s4.193.016 5.656.084c4.986.229 7.753 3 7.976 7.976.067 1.464.082 1.93.082 5.654s-.019 4.189-.085 5.654z"/></svg>