<svg width="23" height="23" viewBox="0 0 23 23" fill="none" xmlns="http://www.w3.org/2000/svg"><path d="M4.843 13.969l2.914-4.984-5.773-.032 2.86 5.016zM17.01 7.605a6.722 6.722 0 01-1.14 9.439l.617.787a7.722 7.722 0 001.31-10.843l-.787.617zm-9.438-1.14a6.723 6.723 0 019.438 1.14l.787-.617a7.723 7.723 0 00-10.842-1.31l.617.787zm-2.23 3.161a6.689 6.689 0 012.229-3.16l-.617-.788a7.689 7.689 0 00-2.56 3.633l.948.315zm10.527 7.418a6.725 6.725 0 01-7.675.436l-.525.852a7.725 7.725 0 008.817-.501l-.617-.787z" fill="#000"/></svg>