<svg xmlns="http://www.w3.org/2000/svg" width="125.722" height="124.325" viewBox="0 0 125.722 124.325">
    <g data-name="Group 1412">
        <path data-name="Path 1000" d="M89.8 75.9v-.1a41.662 41.662 0 1 0-70.6 36.8l.9.9a24.062 24.062 0 0 1-8 12.9l-.1.1a4.741 4.741 0 0 0-1 1 2.784 2.784 0 0 0 .7 3.5l.2.2 1 .4a28.251 28.251 0 0 0 5 .5 23.368 23.368 0 0 0 19.3-9 42.871 42.871 0 0 0 27.4-1.5 41.323 41.323 0 0 0 25.2-45.7zM62.3 116a37.874 37.874 0 0 1-13.7 2.6 41.373 41.373 0 0 1-9.9-1.3l-4-1.1-2.5 3.2a17.642 17.642 0 0 1-11.5 6.6 31.827 31.827 0 0 0 5.2-11l.8-3.4-2.6-2.4a5.716 5.716 0 0 1-.8-.7 35.445 35.445 0 1 1 60.3-31.4v.1A34.833 34.833 0 0 1 62.3 116z" style="fill:#fff" transform="translate(-7.118 -7.793)"/>
    </g>
    <path data-name="Path 1001" d="m127.2 105.8-.2-.1a29.239 29.239 0 0 1-9.3-15 10.949 10.949 0 0 1 1.1-1 48.437 48.437 0 0 0 12.6-45.8 48.8 48.8 0 0 0-78.7-24.5 47.123 47.123 0 0 0-14.2 21 44.209 44.209 0 0 1 10.4-1.2 44.819 44.819 0 0 1 11.5 1.5 45.477 45.477 0 0 1 17.7 9.2 44.633 44.633 0 0 1 14.7 25.2v.1a44.388 44.388 0 0 1-4.2 28.1 50.124 50.124 0 0 0 9.4-1.7 27.114 27.114 0 0 0 22.4 10.5 27.841 27.841 0 0 0 5.8-.6l1.1-.4.3-.3a3.36 3.36 0 0 0 .8-4.1c-.3-.2-.7-.6-1.2-.9z" style="fill:#fff" transform="translate(-7.118 -7.793)"/>
    <path data-name="Path 1002" d="m127.2 105.8-.2-.1a29.239 29.239 0 0 1-9.3-15 10.949 10.949 0 0 1 1.1-1 48.437 48.437 0 0 0 12.6-45.8 48.8 48.8 0 0 0-78.7-24.5 47.524 47.524 0 0 0-15.9 27.3v.1c-.2 1.2-.4 2.4-.5 3.6a35.22 35.22 0 0 1 12.6-2.3 35.551 35.551 0 0 1 35 28.7v.1a34.871 34.871 0 0 1-5.7 26.2 50.989 50.989 0 0 0 19.8-1.4 27.114 27.114 0 0 0 22.4 10.5 27.841 27.841 0 0 0 5.8-.6l1.1-.4.3-.3a3.36 3.36 0 0 0 .8-4.1 6.343 6.343 0 0 0-1.2-1z" style="fill:#fff" transform="translate(-7.118 -7.793)"/>
    <g data-name="Group 1414">
        <g data-name="Group 1413" style="opacity:.4">
            <path data-name="Path 1003" d="M89.8 75.9v-.1a41.824 41.824 0 0 0-52.4-31.9c-.3 1-.5 2-.7 3v.1c-.2 1.2-.4 2.4-.5 3.6a35.22 35.22 0 0 1 12.6-2.3 35.551 35.551 0 0 1 35 28.7v.1a34.871 34.871 0 0 1-5.7 26.2 53.222 53.222 0 0 0 6.9.4 40.515 40.515 0 0 0 4.8-27.8z" style="fill:#103b71" transform="translate(-7.118 -7.793)"/>
        </g>
    </g>
</svg>
