<?xml version="1.0" encoding="UTF-8"?>
<svg width="214px" height="222px" viewBox="0 0 214 222" version="1.1" xmlns="http://www.w3.org/2000/svg" xmlns:xlink="http://www.w3.org/1999/xlink">
    <title>59F4DED0-8D5D-40A6-AA56-867B8C10D038</title>
    <g id="Welcome" stroke="none" stroke-width="1" fill="none" fill-rule="evenodd">
        <g id="MSRD-Home" transform="translate(-89.000000, -1167.000000)" fill-rule="nonzero" stroke="#FFFFFF" stroke-width="2">
            <g id="Our-Mission" transform="translate(0.000000, 1124.000000)">
                <g id="Mission-Graphic-1" transform="translate(196.215316, 153.968974) rotate(10.000000) translate(-196.215316, -153.968974) translate(106.215316, 58.968974)">
                    <g id="Group" opacity="0.25" transform="translate(0.379411, 157.927367)">
                        <path d="M32.0539086,14.6048907 C33.1091544,18.3534583 31.7795447,21.4970696 27.147016,24.997173 C23.0429122,27.9114716 18.5316766,30.1732504 13.7665001,31.7057045 C10.8917401,32.453181 7.843438,31.6373338 5.69387024,29.5451469 C3.77463704,27.8119025 2.26004213,25.6596263 1.26183817,23.2471213 C-0.349264345,19.8161024 0.0585753861,15.7495091 2.3170839,12.7252056 C4.55420485,9.4087496 10.9806514,3.72648299 15.5815228,1.15541939 C20.1823941,-1.41564421 24.1606706,0.680096707 26.9992816,4.64471999 C29.2753402,7.61356966 30.9896188,10.9915653 32.0539086,14.6048907 L32.0539086,14.6048907 Z" id="Path"></path>
                    </g>
                    <g id="Group" opacity="0.4" transform="translate(6.186720, 116.144588)">
                        <path d="M46.2052034,25.0996293 C46.3299011,30.5132379 43.4618536,34.3173952 35.8099482,37.4124936 C29.0838568,39.9226776 22.0123876,41.4027347 14.8380592,41.801906 C10.5756209,41.7942778 6.61580127,39.6139239 4.3521147,36.0281405 C2.27498507,33.0176454 0.90372411,29.5832977 0.339115402,25.9775118 C-0.375062439,21.0928837 0.418468495,16.4783733 5.39504107,12.1452355 C9.6574358,8.45362719 20.5401458,3.02876375 27.817958,1.16044978 C35.0957703,-0.707864181 39.936309,3.51272459 42.5549611,9.84923521 C44.7126055,14.6643522 45.9503583,19.8355752 46.2052034,25.0996293 Z" id="Path"></path>
                    </g>
                    <g id="Group" opacity="0.55" transform="translate(17.903518, 81.757307)">
                        <path d="M55.4017647,34.704566 C53.9264706,41.2220635 49.3441176,44.9130953 39.2517647,46.3540387 C30.4670588,47.6065509 17.7705882,46.6311431 12.8752941,45.4229676 C7.78206038,44.1588381 3.69807484,40.393099 2.05647059,35.447206 C0.460058382,31.2109405 -0.147512159,26.6709466 0.279411765,22.168359 C0.871764706,16.1053128 3.21882353,10.8181592 10.4835294,7.11604324 C16.6864706,3.9459679 31.35,0.687219129 40.66,0.598545693 C49.97,0.509872257 54.4517647,6.99411726 55.6476471,15.3405044 C56.7317647,22.9996725 56.6758824,29.0516345 55.4017647,34.704566 Z" id="Path"></path>
                    </g>
                    <g id="Group" opacity="0.7" transform="translate(32.877100, 52.735140)">
                        <path d="M62.3225806,45.6851442 C58.6833871,52.7337716 52.3064516,55.6470588 40.1535484,54.4140946 C29.5920968,53.3229758 15.1466129,48.5547866 9.84919355,45.7615225 C4.30367667,42.8470573 0.678919707,37.3390726 0.255967742,31.1841753 C-0.335955302,25.8996124 0.29161845,20.5521885 2.09225806,15.5375317 C4.52951613,8.7289504 8.80306452,3.36064591 18.3183871,1.20023068 C26.4537097,-0.632848904 44.4159677,-0.16366782 55.211129,2.41137255 C66.0062903,4.98641292 69.3116129,13.7044521 68.2320968,23.6118108 C67.263871,32.6571857 65.4164516,39.5857901 62.3225806,45.6851442 Z" id="Path"></path>
                    </g>
                    <g id="Group" opacity="0.85" transform="translate(56.676613, 24.153406)">
                        <path d="M66.0321622,63.3917182 C59.8378378,70.3250899 51.7486486,71.7512581 38.4845946,66.7925809 C26.9491892,62.4701941 12.1891892,52.8380733 7.02540541,48.1097771 C1.67771771,43.1751421 -0.733024441,35.8659036 0.642702703,28.7577714 C1.56651901,22.5847737 3.88455851,16.6974985 7.42432432,11.5340474 C12.2667568,4.5677642 18.6937838,-0.292178289 30.0408108,0.0369374551 C39.7478378,0.333141625 59.7935135,6.1146082 71.1516216,12.1922789 C82.5097297,18.2699497 83.5956757,29.1417398 79.407027,40.079353 C75.5840541,50.0625306 71.4175676,57.3908411 66.0321622,63.3917182 Z" id="Path"></path>
                    </g>
                    <path d="M151.096274,84.9991591 C142.092946,90.9547351 132.711233,90.12163 119.534545,80.4958881 C108.071717,72.0747712 94.6168047,56.6510678 90.3766712,49.7272886 C85.9581469,42.5124721 85.5126468,33.5075199 89.1970014,25.8824684 C92.4577866,19.0037218 96.0413115,13.498473 101.961918,8.45480938 C109.440579,2.0489063 118.054393,-1.48616148 130.529957,2.3528771 C141.1915,5.64026497 161.635399,18.316973 172.363716,28.6632382 C183.092033,39.0095035 180.999788,51.652437 173.020325,62.7417419 C165.741985,72.8178109 158.886546,79.8429138 151.096274,84.9991591 Z" id="Path"></path>
                </g>
            </g>
        </g>
    </g>
</svg>